# xmcd
#
# Track frame offsets:
#  150
#  12710
#  23732
#  34147
#  46352
#  57637
#  71400
#  83287
#  94710
#  110360
#  120307
#  130932
#  143575
#  156907
#
# Disc length: 2224 seconds
#
# Revision: 0
# Processed by: cddbd v1.5.1PL0 Copyright (c) Steve Scherf et al.
# Submitted via: Collectorz.com Music Collector 6.9
#
DISCID=b108ae0e
DTITLE=Various Artist - Country Road Vol. 1
DYEAR=1900
DGENRE=Country
TTITLE0=Bobby Bare - The Year That Clayton Delaney Died
TTITLE1=Dave Dudley - Get Me Back To Tennessee
TTITLE2=Linda Manning - Bonjour Tristesse
TTITLE3=David Price - I Need A Friend
TTITLE4=Ferlin Husky - The Bridge I Have Never Crossed
TTITLE5=Dave Dudley - I Was Country Before Barbara Mandrell
TTITLE6=Billy Grammer - Papa And Mama
TTITLE7=Buddy Meredith - A New Girl In Town
TTITLE8=Karen O´Donnell - I Know What It´s All About Now, Mama
TTITLE9=Ronnie Rogers - The Fool In The Stool
TTITLE10=Freddy Quinn - The Yellow Rose Of Texas
TTITLE11=Bobby Bare - Rosalie
TTITLE12=George Kent - Mama Bake A Pie, Daddy Kill A Chicken
TTITLE13=Bud Logan - I Was On My Way
EXTD=
EXTT0=
EXTT1=
EXTT2=
EXTT3=
EXTT4=
EXTT5=
EXTT6=
EXTT7=
EXTT8=
EXTT9=
EXTT10=
EXTT11=
EXTT12=
EXTT13=
PLAYORDER=
